<?xml version="1.0" standalone="no"?>
<!DOCTYPE svg PUBLIC "-//W3C//DTD SVG 20010904//EN"
 "http://www.w3.org/TR/2001/REC-SVG-20010904/DTD/svg10.dtd">
<svg version="1.0" xmlns="http://www.w3.org/2000/svg"
 width="200.000000pt" height="200.000000pt" viewBox="0 0 200.000000 200.000000"
 preserveAspectRatio="xMidYMid meet">
<metadata>
Created by potrace 1.14, written by Peter Selinger 2001-2017
</metadata>
<g transform="translate(0.000000,200.000000) scale(0.100000,-0.100000)"
fill="#000000" stroke="none">
<path d="M875 1993 c-409 -54 -745 -354 -847 -758 -25 -102 -32 -309 -12 -412
39 -208 130 -381 275 -525 148 -147 319 -238 529 -282 64 -13 298 -15 350 -2
14 3 39 8 55 12 54 10 179 57 235 87 168 91 288 204 398 372 50 77 107 233
127 345 17 99 13 295 -10 390 -89 379 -386 675 -759 756 -68 15 -277 26 -341
17z"/>
</g>
</svg>
